<?xml version="1.0" encoding="UTF-8"?>
<!DOCTYPE svg PUBLIC "-//W3C//DTD SVG 1.1//EN" "http://www.w3.org/Graphics/SVG/1.1/DTD/svg11.dtd">
<!-- Creator: CorelDRAW -->
<svg xmlns="http://www.w3.org/2000/svg" xml:space="preserve" width="1440px" height="768px" style="shape-rendering:geometricPrecision; text-rendering:geometricPrecision; image-rendering:optimizeQuality; fill-rule:evenodd; clip-rule:evenodd"
viewBox="0 0 1440 768"
 xmlns:xlink="http://www.w3.org/1999/xlink">
 <defs>
  <style type="text/css">
   <![CDATA[
    .str0 {stroke:#666666;stroke-width:0.288}
    .str1 {stroke:gray;stroke-width:0.288}
    .fil4 {fill:none}
    .fil5 {fill:#A9ABAE}
    .fil3 {fill:#ED3237}
    .fil2 {fill:#FEFEFE}
    .fil1 {fill:#666666}
    .fil0 {fill:gray}
   ]]>
  </style>
   <clipPath id="id0">
    <path d="M664.918 323.365l0 149.417c-72.5061,-57.4129 -119.514,-18.8383 -198.007,-33.3037l82.6537 -113.017c39.354,11.3121 75.5259,-22.7475 115.353,-3.09657z"/>
   </clipPath>
   <clipPath id="id1">
    <path d="M678.249 323.365l0 149.417c72.5061,-57.4129 119.514,-18.8383 198.007,-33.3037l-82.6534 -113.017c-39.354,11.3121 -75.5259,-22.7475 -115.353,-3.09657z"/>
   </clipPath>
   <clipPath id="id2">
    <path d="M704.661 364.32c3.51534,39.8105 -47.3458,48.9906 -29.1235,103.47 53.1674,5.82614 55.5957,-76.4432 29.1235,-103.47z"/>
   </clipPath>
   <clipPath id="id3">
    <path d="M638.508 364.32c-3.51534,39.8105 47.3458,48.9906 29.1235,103.47 -53.1674,5.82614 -55.5957,-76.4432 -29.1235,-103.47z"/>
   </clipPath>
   <clipPath id="id4">
    <path d="M560.304 465.338c36.2729,16.7785 62.1207,-27.9768 107.221,7.60403 -12.5072,52.0029 -90.7457,26.4514 -107.221,-7.60403z"/>
   </clipPath>
   <clipPath id="id5">
    <path d="M782.865 465.338c-36.2729,16.7785 -62.1207,-27.9768 -107.221,7.60403 12.5072,52.0029 90.7457,26.4514 107.221,-7.60403z"/>
   </clipPath>
   <clipPath id="id6">
    <path d="M759.742 402.458c-20.0217,34.5883 -66.9082,12.844 -83.3367,67.8905 40.142,35.3465 89.4471,-30.5556 83.3367,-67.8905z"/>
   </clipPath>
   <clipPath id="id7">
    <path d="M583.426 402.458c20.022,34.5883 66.9086,12.844 83.3371,67.8905 -40.142,35.3465 -89.4471,-30.5556 -83.3371,-67.8905z"/>
   </clipPath>
 </defs>
 <g id="Layer_x0020_1">
  <metadata id="CorelCorpID_0Corel-Layer"/>
  <path class="fil0" d="M631.655 565.805c-183.241,30.4316 -329.067,-8.55609 -336.709,-95.6043 -7.64183,-87.0463 125.513,-192.348 306.492,-248.491 -147.173,50.3123 -253.437,148.385 -245.913,234.091 7.52428,85.708 126.316,130.285 276.13,110.004z"/>
  <path class="fil0" d="M785.307 184.841c183.237,-30.4297 329.059,8.56025 336.701,95.6066 7.6422,87.0482 -125.517,192.35 -306.501,248.493 147.177,-50.3119 253.446,-148.385 245.921,-234.093 -7.52428,-85.7065 -126.312,-130.285 -276.121,-110.006z"/>
  <path class="fil0 str0" d="M671.584 506.537l0 -185.46 -3.32598 -1.64069c-10.8699,-5.36353 -22.2716,-7.51446 -34.7694,-6.9052 -11.4055,0.556346 -22.3952,3.30822 -33.2939,6.03137 -15.781,3.94356 -32.2265,8.18079 -48.4997,3.50362l-4.99729 -1.4366 -2.78967 3.8143c-27.5509,37.6724 -55.1021,75.3441 -82.6537,113.017l-1.00876 1.37915 0 25.9453 5.25694 0.968693c20.1241,3.70847 39.4964,4.1983 59.958,3.15137 16.786,-0.858331 33.7421,-2.7428 50.5565,-2.51528 34.6008,0.468661 59.2059,11.3556 84.3643,31.2771l11.2025 8.87055z"/>
  <path class="fil1 str0" d="M664.918 344.088l0 0.095622 0 0.0967559 0 0.168189 0 0.096378 0 0.096378 0 0.168189 0 0.096378 0 0.0967559 0 0.167811 0 0.096378 0 0.096378 0 0.0714331 0 0.0971339 0 0.096378 0 0.167811 0 0.096378 0 0.0971339 0 0.167811 0 0.096378 0 0.095622 0 0.168945 0 0.0971339 0 0.167433 0 0.096378 0 0.0967559 0 0.167811 0 0.0967559 0 0.095622 0 0.168945 0 0.0967559 0 0.095622 0 0.071811 0 0.0967559 0 0.0971339 0 0.167433 0 0.096378 0 0.096378 0 0.168945 0 0.096 0 0.096 0 0.168189 0 0.0975118 0 0.167433 0 0.096378 0 0.096 0 0.168945 0 0.096378 0 0.096 0 0.168567 0 0.0967559 0 0.096 0 0.0714331 0 0.0971339 0 0.095622 0 0.168567 0 0.096378 0 0.096378 0 0.168567 0 0.096378 0 0.096 0 0.168567 0 0.096 0 0.168567 0 0.0967559 0 0.095622 0 0.168567 0 0.0971339 0 0.095622 0 0.168567 0 0.096 0 0.0967559 0 0.0714331 0 0.0971339 0 0.095622 0 0.168567 0 0.0967559 0 0.096 0 0.168567 0 0.095622 0 0.0967559 0 0.168567 0 0.096378 0 0.168567 0 0.096378 0 0.096 0 0.168189 0 0.096 0 0.0967559 0 0.168567 0 0.096 0 0.0967559 0 0.071811 0 0.0967559 0 0.096 0 0.168567 0 0.0952441 0 0.0975118 0 0.168567 0 0.0952441 0 0.0971339 0 0.168567 0 0.096 0 0.168567 0 0.0952441 0 0.0971339 0 0.168567 0 0.095622 0 0.0971339 0 0.168567 0 0.095622 0 0.0971339 0 0.0714331 0 0.096 0 0.0967559 0 0.168567 0 0.095622 0 0.0971339 0 0.168567 0 0.0952441 0 0.0971339 0 0.167433 0 0.0971339 0 0.168567 0 0.095622 0 0.0967559 0 0.168567 0 0.096 0 0.0967559 0 0.167433 0 0.0971339 0 0.0967559 0 0.071811 0 0.095622 0 0.0971339 0 0.168189 0 0.095622 0 0.0971339 0 0.167433 0 0.0967559 0 0.0967559 0 0.167433 0 0.0975118 0 0.168567 0 0.0952441 0 0.0971339 0 0.167433 0 0.0967559 0 0.0971339 0 0.167055 0 0.0971339 0 0.0971339 0 0.0714331 0 0.095622 0 0.0971339 0 0.167433 0 0.096378 0 0.0975118 0 0.167433 0 0.096378 0 0.0971339 0 0.167433 0 0.0971339 0 0.167433 0 0.0967559 0 0.0967559 0 0.167433 0 0.0967559 0 0.0971339 0 0.167433 0 0.0967559 0 0.096 0 0.0714331 0 0.0971339 0 0.0967559 0 0.167433 0 0.0967559 0 0.0971339 0 0.167433 0 0.0967559 0 0.095622 0 0.168567 0 0.0975118 0 0.167055 0 0.0967559 0 0.0967559 0 0.167433 0 0.0971339 0 0.095622 0 0.168567 0 0.0971339 0 0.095622 0 0.071811 0 0.0967559 0 0.0971339 0 0.167433 0 0.096378 0 0.096378 0 0.168189 0 0.0967559 0 0.095622 0 0.168567 0 0.0975118 0 0.167433 0 0.096378 0 0.096 0 0.168567 0 0.0967559 0 0.096 0 0.168567 0 0.0967559 0 0.096 0 0.0714331 0 0.0971339 0 0.095622 0 0.168567 0 0.096378 0 0.096378 0 0.168567 0 0.096378 0 0.096 0 0.168567 0 0.096 0 0.168567 0 0.0967559 0 0.095622 0 0.168567 0 0.0971339 0 0.095622 0 0.168567 0 0.095622 0 0.0971339 0 0.0714331 0 0.0971339 0 0.095622 0 0.168567 0 0.0967559 0 0.096 0 0.168567 0 0.095622 0 0.0967559 0 0.168567 0 0.096378 0 0.168567 0 0.096378 0 0.096 0 0.168189 0 0.096 0 0.0967559 0 0.168567 0 0.096 0 0.0967559 0 0.071811 0 0.0967559 0 0.096 0 0.168567 0 0.0952441 0 0.0975118 0 0.168567 0 0.0952441 0 0.0971339 0 0.168189 0 0.096378 0 0.168567 0 0.0952441 0 0.0971339 0 0.168567 0 0.095622 0 0.0971339 0 0.168567 0 0.095622 0 0.0971339 0 0.0714331 0 0.096 0 0.0967559 0 0.168567 0 0.095622 0 0.0971339 0 0.168567 0 0.0952441 0 0.0971339 0 0.167433 0 0.0971339 0 0.168567 0 0.095622 0 0.0967559 0 0.168567 0 0.096 0 0.0967559 0 0.167433 0 0.0971339 0 0.0967559 0 0.0714331 0 0.096 0 0.0967559 0 0.168567 0 0.095622 0 0.0971339 0 0.167433 0 0.0967559 0 0.0967559 0 0.167433 0 0.0975118 0 0.168567 0 0.0952441 0 0.0971339 0 0.167433 0 0.0967559 0 0.0971339 0 0.167055 0 0.0971339 0 0.0967559 0 0.071811 0 0.095622 0 0.0971339 0 0.167433 0 0.096378 0 0.0975118 0 0.167433 0 0.096378 0 0.0971339 0 0.167433 0 0.0971339 0 0.167433 0 0.096378 0 0.0971339 0 0.167433 0 0.0967559 0 0.0971339 0 0.167433 0 0.0967559 0 0.096 0 0.0714331 0 0.0971339 0 0.0967559 0 0.167433 0 0.0967559 0 0.0971339 0 0.167433 0 0.0967559 0 0.095622 0 0.168567 0 0.0971339 0 0.167433 0 0.0967559 0 0.0967559 0 0.167433 0 0.0971339 0 0.095622 0 0.168567 0 0.0971339 0 0.095622 0 0.071811 0 0.0967559 0 0.0971339 0 0.167055 0 0.0967559 0 0.096 0 0.168567 0 0.0967559 0 0.095622 0 0.168567 0 0.0975118 0 0.167433 0 0.096378 0 0.096 0 0.168567 0 0.0967559 0 0.096 0 0.168567 0 0.0967559 0 0.096 0 0.0714331 0 0.0967559 0 0.096 0 0.168567 0 0.096378 0 0.096378 0 0.168567 0 0.096378 0 0.096 0 0.168567 0 0.096 0 0.168567 0 0.0967559 0 0.095622 0 0.168567 0 0.0967559 0 0.096 0 0.168567 0 0.095622 0 0.0971339 0 0.0714331 0 0.0971339 0 0.095622 0 0.168567 0 0.0967559 0 0.096 0 0.168567 0 0.096 0 0.096378 0 0.168567 0 0.096378 0 0.168189 0 0.0967559 0 0.095622 0 0.168567 0 0.096378 0 0.096378 0 0.168567 0 0.096 0 0.0967559 0 0.071811 0 0.0967559 0 0.096 0 0.168567 0 0.095622 0 0.0971339 0 0.168189 0 0.096 0 0.0967559 0 0.168189 0 0.096378 0 0.168567 0 0.095622 0 0.0967559 0 0.168567 0 0.096 0 0.0967559 0 0.168567 0 0.095622 0 0.0971339 0 0.0714331 0 0.096378 0 0.096378 0 0.168567 0 0.095622 0 0.0971339 0 0.168567 0 0.095622 0 0.0967559 0 0.167811 0 0.0967559 0 0.168567 0 0.096 0 0.096378 0 0.168567 0 0.096378 0 0.096378 0 0.167811 0 0.0967559 0 0.0967559 0 0.0714331 0 0.096378 0 0.096378 0 0.168567 0 0.096 0 0.0967559 0 0.167811 0 0.0967559 0 0.096378 0 0.167811 0 0.0971339 0 0.168567 0 0.095622 0 0.0967559 0 0.167433 0 0.0971339 0 0.096378 0 0.167811 0 0.0967559 0 0.0967559 0 0.071811 0 0.096 0 0.0967559 0 0.167811 0 0.096378 0 0.0971339 0 0.167811 0 0.096378 0 0.0967559 0 0.167811 0 0.0967559 0 0.167811 0 0.096378 0 0.0967559 0 0.167811 0 0.0967559 0 0.0967559 0 0.167811 0 0.096378 0 0.096 0 0.071811 0 0.0971339 0 0.096378 0 0.167811 0 0.0967559 0 0.0967559 0 0.167811 0 0.096378 0 0.095622 0 0.168945 0 0.0967559 0 0.167811 0 0.0967559 0 0.096378 0 0.167811 0 0.0971339 0 0.0952441 0 0.168945 0 0.0967559 0 0.095622 0 0.072189 0 0.0967559 0 0.0967559 0 0.167433 0 0.0967559 0 0.095622 0 0.168945 0 0.0967559 0 0.0952441 0 0.168945 0 0.0971339 0 0.167811 0 0.096378 0 0.095622 0 0.168945 0 0.0967559 0 0.095622 0 0.168567 0 0.0967559 0 0.095622 0 0.072189 0 0.0967559 0 0.095622 0 0.168945 0 0.096378 0 0.096 0 0.168945 0 0.096378 0 0.095622 0 0.168945 0 0.095622 0 0.168945 0 0.0967559 0 0.0952441 0 0.168945 0 0.0967559 0 0.095622 0 0.168945 0 0.0952441 0 0.0971339 0 0.071811 0 0.0971339 0 0.0952441 0 0.168945 0 0.0967559 0 0.095622 0 0.168945 0 0.095622 0 0.096378 0 0.168945 0 0.095622 0 0.168945 0 0.0967559 0 0.0952441 0 0.168945 0 0.096 0 0.096378 0 0.168945 0 0.095622 0 0.0967559 0 0.072189 0 0.0967559 0 0.095622 0 0.168945 0 0.0952441 0 0.0971339 0 0.168567 0 0.095622 0 0.096378 0 0.168945 0 0.096 0 0.168945 0 0.0952441 0 0.0967559 0 0.168945 0 0.095622 0 0.0967559 0 0.168945 0 0.0952441 0 0.0971339 0 0.071811 0 0.095622 0 0.0967559 0 0.168945 0 0.0952441 0 0.0971339 0 0.168945 0 0.0952441 0 0.0967559 0 0.167811 0 0.0967559 0 0.168945 0 0.095622 0 0.096378 0 0.168945 0 0.096 0 0.096378 0 0.167811 0 0.096378 0 0.0971339 0 0.071811 0 0.096 0 0.096378 0 0.168945 0 0.095622 0 0.0967559 0 0.167811 0 0.0967559 0 0.096378 0 0.167811 0 0.0971339 0 0.168567 0 0.095622 0 0.0967559 0 0.167433 0 0.0971339 0 0.096378 0 0.167811 0 0.0967559 0 0.0967559 0 0.072189 0 0.095622 0 0.0967559 0 0.167811 0 0.096378 0 0.0971339 0 0.167811 0 0.096378 0 0.0967559 0 0.167433 0 0.0971339 0 0.167811 0 0.096378 0 0.0967559 0 0.167811 0 0.0967559 0 0.0967559 0 0.167811 0 0.096378 0 0.096 0 0.071811 0 0.0971339 0 0.096378 0 0.167811 0 0.0967559 0 0.0967559 0 0.167811 0 0.096378 0 0.095622 0 0.168945 0 0.0967559 0 0.167811 0 0.0967559 0 0.096378 0 0.167811 0 0.0971339 0 0.0952441 0 0.168945 0 0.0967559 0 0.095622 0 0.071811 0 0.0971339 0 0.096378 0 0.167811 0 0.0967559 0 0.095622 0 0.168945 0 0.0967559 0 0.0952441 0 0.168945 0 0.0971339 0 0.167811 0 0.096378 0 0.095622 0 0.168567 0 0.0971339 0 0.095622 0 0.168567 0 0.0967559 0 0.095622 0 0.072189 0 0.0967559 0 0.095622 0 0.168945 0 0.096378 0 0.096 0 0.168945 0 0.096378 0 0.095622 0 0.168945 0 0.095622 0 0.168945 0 0.096378 0 0.095622 0 0.168945 0 0.0967559 0 0.095622 0 0.168945 0 0.0952441 0 0.0971339 0 0.071811 0 0.0971339 0 0.0952441 0 0.168945 0 0.0967559 0 0.095622 0 0.168945 0 0.095622 0 0.096378 0 0.168945 0 0.095622 0 0.168945 0 0.0967559 0 0.0952441 0 0.168945 0 0.096 0 0.096378 0 0.168945 0 0.095622 0 0.0967559 0 0.072189 0 0.0967559 0 0.095622 0 0.168567 0 0.095622 0 0.0967559 0 0.168945 0 0.095622 0 0.096378 0 0.168945 0 0.096 0 0.168945 0 0.0952441 0 0.0967559 0 0.168945 0 0.095622 0 0.0967559 0 0.168945 0 0.0952441 0 0.0971339 0 0.071811 0 0.095622 0 0.0967559 0 0.168945 0 0.0952441 0 0.0971339 0 0.168945 0 0.0952441 0 0.0967559 0 0.167811 0 0.0967559 0 0.168945 0 0.095622 0 0.096378 0 0.168945 0 0.095622 0 0.0967559 0 0.167811 0 0.096378 0 0.0971339 0 0.071811 0 0.096 0 0.096378 0 0.168945 0 0.095622 0 0.0967559 0 0.167811 0 0.0967559 0 0.096378 0 0.167811 0 0.0971339 0 0.168567 0 0.095622 0 0.096378 0 0.167811 0 0.0971339 0 0.096378 0 0.167811 0 0.0967559 0 0.0967559 0 0.072189 0 0.095622 0 0.0967559 0 0.167811 0 0.096378 0 0.0971339 0 0.167433 0 0.0967559 0 0.096378 0 0.167811 0 0.0971339 0 0.167811 0 0.096378 0 0.0967559 0 0.167811 0 0.0967559 0 0.0967559 0 0.167811 0 0.096378 0 0.096 0 0.071811 0 0.0971339 0 0.096378 0 0.167811 0 0.096378 0 0.0971339 0 0.167811 0 0.096378 0 0.095622 0 0.168945 0 0.0967559 0 0.167811 0 0.0967559 0 0.096378 0 0.167811 0 0.0971339 0 0.0952441 0 0.168945 0 0.096378 0 0.096 0 0.071811 0 0.0971339 0 0.096378 0 0.167811 0 0.0967559 0 0.095622 0 0.168945 0 0.0967559 0 0.0952441 0 0.168945 0 0.0971339 0 0.167811 0 0.096378 0 0.095622 0 0.168567 0 0.0971339 0 0.0952441 0 0.168945 0 0.0967559 0 0.095622 0 0.072189 0 0.0967559 0 0.095622 0 0.168945 0 0.096378 0 0.096 0 0.168945 0 0.096378 0 0.095622 0 0.168567 0 0.096 0 0.168945 0 0.096378 0 0.095622 0 0.168945 0 0.0967559 0 0.095622 0 0.168945 0 0.0952441 0 0.0971339 0 0.071811 0 0.0971339 0 0.0952441 0 0.168945 0 0.0967559 0 0.095622 0 0.168945 0 0.0952441 0 0.0967559 0 0.168945 0 0.095622 0 0.168945 0 0.0967559 0 0.0952441 0 0.168945 0 0.096 0 0.096378 0 0.168945 0 0.095622 0 0.0967559 0 0.071811 0 0.0971339 0 0.095622 0 0.168567 0 0.095622 0 0.0967559 0 0.168945 0 0.095622 0 0.096378 0 0.168945 0 0.096 0 0.168945 0 0.0952441 0 0.0967559 0 0.168945 0 0.095622 0 0.0967559 0 0.168567 0 0.095622 0 0.0967559 0 0.072189 0 0.095622 0 0.0967559 0 0.168945 0 0.0952441 0 0.0971339 0 0.168945 0 0.0952441 0 0.0967559 0 0.167811 0 0.0967559 0 0.168945 0 0.095622 0 0.096378 0 0.168945 0 0.095622 0 0.0967559 0 0.167811 0 0.096378 0 0.0971339 0 0.071811 0 0.096 0 0.096378 0 0.168945 0 0.095622 0 0.0967559 0 0.167811 0 0.0967559 0 0.096378 0 0.167811 0 0.0967559 0 0.168945 0 0.095622 0 0.096378 0 0.167811 0 0.0971339 0 0.096378 0 0.167811 0 0.0967559 0 0.0967559 0 0.072189 0 0.095622 0 0.0967559 0 0.167433 0 0.0967559 0 0.0971339 0 0.167433 0 0.0967559 0 0.096378 0 0.167811 0 0.0971339 0 0.167811 0 0.096378 0 0.0967559 0 0.167811 0 0.0967559 0 0.0967559 0 0.167811 0 0.096378 0 0.0971339 0 0.0706772 0 0.0967559 0 0.0967559 0 0.167811 0 0.096378 0 0.0971339 0 0.167811 0 0.096378 0 0.0967559 0 0.167811 0 0.0967559 0 0.167811 0 0.0967559 0 0.096378 0 0.167811 0 0.0971339 0 0.096378 0 0.167811 0 0.096378 0 0.0971339 0 0.0706772 0 0.0971339 0 0.096378 0 0.167811 0 0.0967559 0 0.0967559 0 0.167811 0 0.0967559 0 0.096378 0 0.167811 0 0.0971339 0 0.167433 0 0.0967559 0 0.096378 0 0.167811 0 0.0971339 0 0.096378 0 0.167811 0 0.0967559 0 0.0967559 0 0.0710551 0 0.0967559 0 0.0967559 0 0.167811 0 0.096378 0 0.0971339 0 0.167811 0 0.096378 0 0.0967559 0 0.167433 0 0.0971339 0 0.167811 0 0.096378 0 0.0967559 0 0.167811 0 0.0967559 0 0.0967559 0 0.167811 0 0.096378 0 0.0971339 0 0.0706772 0 0.0971339 0 0.096378 0 0.167811 0 0.096378 0 0.0971339 0 0.167811 0 0.096378 0 0.0967559 0 0.167811 0 0.0967559 0 0.167811 0 0.0967559 0 0.096378 0 0.167811 0 0.0971339 0 0.096378 0 0.167811 0 0.0967559 0 0.0967559 0 0.0706772 0 0.0971339 0 0.096378 0 0.167811 0 0.0967559 0 0.0967559 0 0.167811 0 0.0967559 0 0.096378 0 0.167811 0 0.0971339 0 0.167811 0 0.096378 0 0.0967559 0 0.167433 0 0.0971339 0 0.0967559 0 0.167433 0 0.0967559 0 0.0967559 0 0.0710551 0 0.0967559 0 0.0967559 0 0.167811 0 0.096378 0 0.0971339 0 0.167811 0 0.096378 0 0.0967559 0 0.167811 0 0.0967559 0 0.167811 0 0.096378 0 0.0967559 0 0.167811 0 0.0967559 0 0.0967559 0 0.167811 0 0.096378 0 0.0971339 0 0.0706772 0 0.0971339 0 0.096378 0 0.167811 0 0.0967559 0 0.0967559 0 0.167811 0 0.096378 0 0.0967559 0 0.167811 0 0.0967559 0 0.167811 0 0.0967559 0 0.096378 0 0.167811 0 0.0971339 0 0.096378 0 0.167811 0 0.0967559 0 0.0967559 0 0.0710551 0 0.0967559 0 0.0967559 0 0.167433 0 0.0967559 0 0.0967559 0 0.167811 0 0.0967559 0 0.096378 0 0.167811 0 0.0971339 0 0.167811 0 0.096378 0 0.0967559 0 0.167811 0 0.0967559 0 0.0967559 0 0.167433 0 0.0967559 0 0.167811 0 0.0967559 0 0.0967559 0 0.167811 0 0.096378 0 0.0971339 0 0.167811 0 0.096378 0 0.264567 0 0.0967559 0 0.167811 0 0.0967559 0 0.096378 0 0.167811 0 0.0967559 0 0.264567 0 0.096378 0 0.167811 0 0.0971339 0 0.096378 0 0.167811 0 0.0967559 0 0.264567 0 0.0967559 0 0.264189 0 0.0971339 0 0.167433 0 0.0967559 0 0.264189 0 0.0971339 0 0.264189 0 0.0967559 0 0.167811 0 0.0967559 0 0.264567 0 0.096378 0 0.264567 0 0.0967559 0 0.264189 0 0.264945 0 0.096378 0 0.264567 0 0.0967559 0 0.264567 0 0.264189 0 0.0971339 0 0.264189 0 0.096378 0 0.264945 0 0.360945 0 0.264567 0 0.0967559 0 0.264189 0 0.361323 0 0.264189 0 0.0971339 0 0.264189 0 0.361323 0 0.360945 0 0.264945 0 0.360567 0 0.361323 0 0.264567 0 0.361323 0 0.361323 0 0.625512 0 0.360945 0 0.625512 0 0.361323 0 0.986835 0 0.986457 0 0.987591c-72.5061,-57.4129 -119.514,-18.8383 -198.007,-33.3041l0 -19.7359c27.5516,-37.6721 55.1025,-75.3441 82.6537,-113.017 39.354,11.3121 75.5259,-22.7471 115.353,-3.09619l0 0.986457 0 0.986835 0 0.986835 0 0.986835 0 0.986835 0 0.986835 0 0.360945 0 0.625512 0 0.361323 0 0.625512 0 0.361323 0 0.360945 0 0.264945 0 0.360945 0 0.361323 0 0.264189 0 0.361323 0 0.361323 0 0.264189 0 0.0967559 0 0.264567 0 0.360945 0 0.264567 0 0.0967559 0 0.264189 0 0.361323 0 0.264567 0 0.0967559 0 0.264567 0 0.096378 0 0.264567 0 0.264567 0 0.096378 0 0.264945 0 0.096378 0 0.264567 0 0.264567 0 0.0967559 0 0.264189 0 0.0967559 0 0.264567 0 0.096378 0 0.167811 0 0.0971339 0 0.264189 0 0.0967559 0 0.264567 0 0.0967559 0 0.167811 0 0.096378 0 0.264567 0 0.096378 0 0.264567 0 0.0971339 0 0.167811 0 0.096378 0 0.0967559 0 0.167811 0 0.096378 0 0.264945 0 0.096378 0 0.167811 0 0.0967559 0 0.096378 0 0.168189 0 0.096 0 0.265323 0 0.096 0 0.168567z"/>
  <path class="fil0 str0" d="M671.584 506.537l0 -185.46 3.32598 -1.64069c10.8695,-5.36353 22.2716,-7.51446 34.7694,-6.9052 11.4055,0.556346 22.3952,3.30822 33.2935,6.03137 15.781,3.94356 32.2269,8.18079 48.4997,3.50362l4.99729 -1.4366 2.79005 3.8143c27.5509,37.6724 55.1021,75.3441 82.6534,113.017l1.00876 1.37915 0 25.9453 -5.25694 0.968693c-20.1237,3.70847 -39.4964,4.1983 -59.958,3.15137 -16.7856,-0.858331 -33.7417,-2.7428 -50.5561,-2.51528 -34.6008,0.468661 -59.2059,11.3556 -84.3643,31.2771l-11.2025 8.87055z"/>
  <path class="fil1 str0" d="M678.249 344.088l0 0.095622 0 0.0967559 0 0.168189 0 0.096378 0 0.096378 0 0.168189 0 0.096378 0 0.0967559 0 0.167811 0 0.096378 0 0.096378 0 0.0714331 0 0.0971339 0 0.096378 0 0.167811 0 0.096378 0 0.0971339 0 0.167811 0 0.096378 0 0.095622 0 0.168945 0 0.0971339 0 0.167433 0 0.096378 0 0.0967559 0 0.167811 0 0.0967559 0 0.095622 0 0.168945 0 0.0967559 0 0.095622 0 0.071811 0 0.0967559 0 0.0971339 0 0.167433 0 0.096378 0 0.096378 0 0.168945 0 0.096 0 0.096 0 0.168189 0 0.0975118 0 0.167433 0 0.096378 0 0.096 0 0.168945 0 0.096378 0 0.096 0 0.168567 0 0.0967559 0 0.096 0 0.0714331 0 0.0971339 0 0.095622 0 0.168567 0 0.096378 0 0.096378 0 0.168567 0 0.096378 0 0.096 0 0.168567 0 0.096 0 0.168567 0 0.0967559 0 0.095622 0 0.168567 0 0.0971339 0 0.095622 0 0.168567 0 0.096 0 0.0967559 0 0.0714331 0 0.0971339 0 0.095622 0 0.168567 0 0.0967559 0 0.096 0 0.168567 0 0.095622 0 0.0967559 0 0.168567 0 0.096378 0 0.168567 0 0.096378 0 0.096 0 0.168189 0 0.096 0 0.0967559 0 0.168567 0 0.096 0 0.0967559 0 0.071811 0 0.0967559 0 0.096 0 0.168567 0 0.0952441 0 0.0975118 0 0.168567 0 0.0952441 0 0.0971339 0 0.168567 0 0.096 0 0.168567 0 0.0952441 0 0.0971339 0 0.168567 0 0.095622 0 0.0971339 0 0.168567 0 0.095622 0 0.0971339 0 0.0714331 0 0.096 0 0.0967559 0 0.168567 0 0.095622 0 0.0971339 0 0.168567 0 0.0952441 0 0.0971339 0 0.167433 0 0.0971339 0 0.168567 0 0.095622 0 0.0967559 0 0.168567 0 0.096 0 0.0967559 0 0.167433 0 0.0971339 0 0.0967559 0 0.071811 0 0.095622 0 0.0971339 0 0.168189 0 0.095622 0 0.0971339 0 0.167433 0 0.0967559 0 0.0967559 0 0.167433 0 0.0975118 0 0.168567 0 0.0952441 0 0.0971339 0 0.167433 0 0.0967559 0 0.0971339 0 0.167055 0 0.0971339 0 0.0971339 0 0.0714331 0 0.095622 0 0.0971339 0 0.167433 0 0.096378 0 0.0975118 0 0.167433 0 0.096378 0 0.0971339 0 0.167433 0 0.0971339 0 0.167433 0 0.0967559 0 0.0967559 0 0.167433 0 0.0967559 0 0.0971339 0 0.167433 0 0.0967559 0 0.096 0 0.0714331 0 0.0971339 0 0.0967559 0 0.167433 0 0.0967559 0 0.0971339 0 0.167433 0 0.0967559 0 0.095622 0 0.168567 0 0.0975118 0 0.167055 0 0.0967559 0 0.0967559 0 0.167433 0 0.0971339 0 0.095622 0 0.168567 0 0.0971339 0 0.095622 0 0.071811 0 0.0967559 0 0.0971339 0 0.167433 0 0.096378 0 0.096378 0 0.168189 0 0.0967559 0 0.095622 0 0.168567 0 0.0975118 0 0.167433 0 0.096378 0 0.096 0 0.168567 0 0.0967559 0 0.096 0 0.168567 0 0.0967559 0 0.096 0 0.0714331 0 0.0971339 0 0.095622 0 0.168567 0 0.096378 0 0.096378 0 0.168567 0 0.096378 0 0.096 0 0.168567 0 0.096 0 0.168567 0 0.0967559 0 0.095622 0 0.168567 0 0.0971339 0 0.095622 0 0.168567 0 0.095622 0 0.0971339 0 0.0714331 0 0.0971339 0 0.095622 0 0.168567 0 0.0967559 0 0.096 0 0.168567 0 0.095622 0 0.0967559 0 0.168567 0 0.096378 0 0.168567 0 0.096378 0 0.096 0 0.168189 0 0.096 0 0.0967559 0 0.168567 0 0.096 0 0.0967559 0 0.071811 0 0.0967559 0 0.096 0 0.168567 0 0.0952441 0 0.0975118 0 0.168567 0 0.0952441 0 0.0971339 0 0.168189 0 0.096378 0 0.168567 0 0.0952441 0 0.0971339 0 0.168567 0 0.095622 0 0.0971339 0 0.168567 0 0.095622 0 0.0971339 0 0.0714331 0 0.096 0 0.0967559 0 0.168567 0 0.095622 0 0.0971339 0 0.168567 0 0.0952441 0 0.0971339 0 0.167433 0 0.0971339 0 0.168567 0 0.095622 0 0.0967559 0 0.168567 0 0.096 0 0.0967559 0 0.167433 0 0.0971339 0 0.0967559 0 0.0714331 0 0.096 0 0.0967559 0 0.168567 0 0.095622 0 0.0971339 0 0.167433 0 0.0967559 0 0.0967559 0 0.167433 0 0.0975118 0 0.168567 0 0.0952441 0 0.0971339 0 0.167433 0 0.0967559 0 0.0971339 0 0.167055 0 0.0971339 0 0.0967559 0 0.071811 0 0.095622 0 0.0971339 0 0.167433 0 0.096378 0 0.0975118 0 0.167433 0 0.096378 0 0.0971339 0 0.167433 0 0.0971339 0 0.167433 0 0.096378 0 0.0971339 0 0.167433 0 0.0967559 0 0.0971339 0 0.167433 0 0.0967559 0 0.096 0 0.0714331 0 0.0971339 0 0.0967559 0 0.167433 0 0.0967559 0 0.0971339 0 0.167433 0 0.0967559 0 0.095622 0 0.168567 0 0.0971339 0 0.167433 0 0.0967559 0 0.0967559 0 0.167433 0 0.0971339 0 0.095622 0 0.168567 0 0.0971339 0 0.095622 0 0.071811 0 0.0967559 0 0.0971339 0 0.167055 0 0.0967559 0 0.096 0 0.168567 0 0.0967559 0 0.095622 0 0.168567 0 0.0975118 0 0.167433 0 0.096378 0 0.096 0 0.168567 0 0.0967559 0 0.096 0 0.168567 0 0.0967559 0 0.096 0 0.0714331 0 0.0967559 0 0.096 0 0.168567 0 0.096378 0 0.096378 0 0.168567 0 0.096378 0 0.096 0 0.168567 0 0.096 0 0.168567 0 0.0967559 0 0.095622 0 0.168567 0 0.0967559 0 0.096 0 0.168567 0 0.095622 0 0.0971339 0 0.0714331 0 0.0971339 0 0.095622 0 0.168567 0 0.0967559 0 0.096 0 0.168567 0 0.096 0 0.096378 0 0.168567 0 0.096378 0 0.168189 0 0.0967559 0 0.095622 0 0.168567 0 0.096378 0 0.096378 0 0.168567 0 0.096 0 0.0967559 0 0.071811 0 0.0967559 0 0.096 0 0.168567 0 0.095622 0 0.0971339 0 0.168189 0 0.096 0 0.0967559 0 0.168189 0 0.096378 0 0.168567 0 0.095622 0 0.0967559 0 0.168567 0 0.096 0 0.0967559 0 0.168567 0 0.095622 0 0.0971339 0 0.0714331 0 0.096378 0 0.096378 0 0.168567 0 0.095622 0 0.0971339 0 0.168567 0 0.095622 0 0.0967559 0 0.167811 0 0.0967559 0 0.168567 0 0.096 0 0.096378 0 0.168567 0 0.096378 0 0.096378 0 0.167811 0 0.0967559 0 0.0967559 0 0.0714331 0 0.096378 0 0.096378 0 0.168567 0 0.096 0 0.0967559 0 0.167811 0 0.0967559 0 0.096378 0 0.167811 0 0.0971339 0 0.168567 0 0.095622 0 0.0967559 0 0.167433 0 0.0971339 0 0.096378 0 0.167811 0 0.0967559 0 0.0967559 0 0.071811 0 0.096 0 0.0967559 0 0.167811 0 0.096378 0 0.0971339 0 0.167811 0 0.096378 0 0.0967559 0 0.167811 0 0.0967559 0 0.167811 0 0.096378 0 0.0967559 0 0.167811 0 0.0967559 0 0.0967559 0 0.167811 0 0.096378 0 0.096 0 0.071811 0 0.0971339 0 0.096378 0 0.167811 0 0.0967559 0 0.0967559 0 0.167811 0 0.096378 0 0.095622 0 0.168945 0 0.0967559 0 0.167811 0 0.0967559 0 0.096378 0 0.167811 0 0.0971339 0 0.0952441 0 0.168945 0 0.0967559 0 0.095622 0 0.072189 0 0.0967559 0 0.0967559 0 0.167433 0 0.0967559 0 0.095622 0 0.168945 0 0.0967559 0 0.0952441 0 0.168945 0 0.0971339 0 0.167811 0 0.096378 0 0.095622 0 0.168945 0 0.0967559 0 0.095622 0 0.168567 0 0.0967559 0 0.095622 0 0.072189 0 0.0967559 0 0.095622 0 0.168945 0 0.096378 0 0.096 0 0.168945 0 0.096378 0 0.095622 0 0.168945 0 0.095622 0 0.168945 0 0.0967559 0 0.0952441 0 0.168945 0 0.0967559 0 0.095622 0 0.168945 0 0.0952441 0 0.0971339 0 0.071811 0 0.0971339 0 0.0952441 0 0.168945 0 0.0967559 0 0.095622 0 0.168945 0 0.095622 0 0.096378 0 0.168945 0 0.095622 0 0.168945 0 0.0967559 0 0.0952441 0 0.168945 0 0.096 0 0.096378 0 0.168945 0 0.095622 0 0.0967559 0 0.072189 0 0.0967559 0 0.095622 0 0.168945 0 0.0952441 0 0.0971339 0 0.168567 0 0.095622 0 0.096378 0 0.168945 0 0.096 0 0.168945 0 0.0952441 0 0.0967559 0 0.168945 0 0.095622 0 0.0967559 0 0.168945 0 0.0952441 0 0.0971339 0 0.071811 0 0.095622 0 0.0967559 0 0.168945 0 0.0952441 0 0.0971339 0 0.168945 0 0.0952441 0 0.0967559 0 0.167811 0 0.0967559 0 0.168945 0 0.095622 0 0.096378 0 0.168945 0 0.096 0 0.096378 0 0.167811 0 0.096378 0 0.0971339 0 0.071811 0 0.096 0 0.096378 0 0.168945 0 0.095622 0 0.0967559 0 0.167811 0 0.0967559 0 0.096378 0 0.167811 0 0.0971339 0 0.168567 0 0.095622 0 0.0967559 0 0.167433 0 0.0971339 0 0.096378 0 0.167811 0 0.0967559 0 0.0967559 0 0.072189 0 0.095622 0 0.0967559 0 0.167811 0 0.096378 0 0.0971339 0 0.167811 0 0.096378 0 0.0967559 0 0.167433 0 0.0971339 0 0.167811 0 0.096378 0 0.0967559 0 0.167811 0 0.0967559 0 0.0967559 0 0.167811 0 0.096378 0 0.096 0 0.071811 0 0.0971339 0 0.096378 0 0.167811 0 0.0967559 0 0.0967559 0 0.167811 0 0.096378 0 0.095622 0 0.168945 0 0.0967559 0 0.167811 0 0.0967559 0 0.096378 0 0.167811 0 0.0971339 0 0.0952441 0 0.168945 0 0.0967559 0 0.095622 0 0.071811 0 0.0971339 0 0.096378 0 0.167811 0 0.0967559 0 0.095622 0 0.168945 0 0.0967559 0 0.0952441 0 0.168945 0 0.0971339 0 0.167811 0 0.096378 0 0.095622 0 0.168567 0 0.0971339 0 0.095622 0 0.168567 0 0.0967559 0 0.095622 0 0.072189 0 0.0967559 0 0.095622 0 0.168945 0 0.096378 0 0.096 0 0.168945 0 0.096378 0 0.095622 0 0.168945 0 0.095622 0 0.168945 0 0.096378 0 0.095622 0 0.168945 0 0.0967559 0 0.095622 0 0.168945 0 0.0952441 0 0.0971339 0 0.071811 0 0.0971339 0 0.0952441 0 0.168945 0 0.0967559 0 0.095622 0 0.168945 0 0.095622 0 0.096378 0 0.168945 0 0.095622 0 0.168945 0 0.0967559 0 0.0952441 0 0.168945 0 0.096 0 0.096378 0 0.168945 0 0.095622 0 0.0967559 0 0.072189 0 0.0967559 0 0.095622 0 0.168567 0 0.095622 0 0.0967559 0 0.168945 0 0.095622 0 0.096378 0 0.168945 0 0.096 0 0.168945 0 0.0952441 0 0.0967559 0 0.168945 0 0.095622 0 0.0967559 0 0.168945 0 0.0952441 0 0.0971339 0 0.071811 0 0.095622 0 0.0967559 0 0.168945 0 0.0952441 0 0.0971339 0 0.168945 0 0.0952441 0 0.0967559 0 0.167811 0 0.0967559 0 0.168945 0 0.095622 0 0.096378 0 0.168945 0 0.095622 0 0.0967559 0 0.167811 0 0.096378 0 0.0971339 0 0.071811 0 0.096 0 0.096378 0 0.168945 0 0.095622 0 0.0967559 0 0.167811 0 0.0967559 0 0.096378 0 0.167811 0 0.0971339 0 0.168567 0 0.095622 0 0.096378 0 0.167811 0 0.0971339 0 0.096378 0 0.167811 0 0.0967559 0 0.0967559 0 0.072189 0 0.095622 0 0.0967559 0 0.167811 0 0.096378 0 0.0971339 0 0.167433 0 0.0967559 0 0.096378 0 0.167811 0 0.0971339 0 0.167811 0 0.096378 0 0.0967559 0 0.167811 0 0.0967559 0 0.0967559 0 0.167811 0 0.096378 0 0.096 0 0.071811 0 0.0971339 0 0.096378 0 0.167811 0 0.096378 0 0.0971339 0 0.167811 0 0.096378 0 0.095622 0 0.168945 0 0.0967559 0 0.167811 0 0.0967559 0 0.096378 0 0.167811 0 0.0971339 0 0.0952441 0 0.168945 0 0.096378 0 0.096 0 0.071811 0 0.0971339 0 0.096378 0 0.167811 0 0.0967559 0 0.095622 0 0.168945 0 0.0967559 0 0.0952441 0 0.168945 0 0.0971339 0 0.167811 0 0.096378 0 0.095622 0 0.168567 0 0.0971339 0 0.0952441 0 0.168945 0 0.0967559 0 0.095622 0 0.072189 0 0.0967559 0 0.095622 0 0.168945 0 0.096378 0 0.096 0 0.168945 0 0.096378 0 0.095622 0 0.168567 0 0.096 0 0.168945 0 0.096378 0 0.095622 0 0.168945 0 0.0967559 0 0.095622 0 0.168945 0 0.0952441 0 0.0971339 0 0.071811 0 0.0971339 0 0.0952441 0 0.168945 0 0.0967559 0 0.095622 0 0.168945 0 0.0952441 0 0.0967559 0 0.168945 0 0.095622 0 0.168945 0 0.0967559 0 0.0952441 0 0.168945 0 0.096 0 0.096378 0 0.168945 0 0.095622 0 0.0967559 0 0.071811 0 0.0971339 0 0.095622 0 0.168567 0 0.095622 0 0.0967559 0 0.168945 0 0.095622 0 0.096378 0 0.168945 0 0.096 0 0.168945 0 0.0952441 0 0.0967559 0 0.168945 0 0.095622 0 0.0967559 0 0.168567 0 0.095622 0 0.0967559 0 0.072189 0 0.095622 0 0.0967559 0 0.168945 0 0.0952441 0 0.0971339 0 0.168945 0 0.0952441 0 0.0967559 0 0.167811 0 0.0967559 0 0.168945 0 0.095622 0 0.096378 0 0.168945 0 0.095622 0 0.0967559 0 0.167811 0 0.096378 0 0.0971339 0 0.071811 0 0.096 0 0.096378 0 0.168945 0 0.095622 0 0.0967559 0 0.167811 0 0.0967559 0 0.096378 0 0.167811 0 0.0967559 0 0.168945 0 0.095622 0 0.096378 0 0.167811 0 0.0971339 0 0.096378 0 0.167811 0 0.0967559 0 0.0967559 0 0.072189 0 0.095622 0 0.0967559 0 0.167433 0 0.0967559 0 0.0971339 0 0.167433 0 0.0967559 0 0.096378 0 0.167811 0 0.0971339 0 0.167811 0 0.096378 0 0.0967559 0 0.167811 0 0.0967559 0 0.0967559 0 0.167811 0 0.096378 0 0.0971339 0 0.0706772 0 0.0967559 0 0.0967559 0 0.167811 0 0.096378 0 0.0971339 0 0.167811 0 0.096378 0 0.0967559 0 0.167811 0 0.0967559 0 0.167811 0 0.0967559 0 0.096378 0 0.167811 0 0.0971339 0 0.096378 0 0.167811 0 0.096378 0 0.0971339 0 0.0706772 0 0.0971339 0 0.096378 0 0.167811 0 0.0967559 0 0.0967559 0 0.167811 0 0.0967559 0 0.096378 0 0.167811 0 0.0971339 0 0.167433 0 0.0967559 0 0.096378 0 0.167811 0 0.0971339 0 0.096378 0 0.167811 0 0.0967559 0 0.0967559 0 0.0710551 0 0.0967559 0 0.0967559 0 0.167811 0 0.096378 0 0.0971339 0 0.167811 0 0.096378 0 0.0967559 0 0.167433 0 0.0971339 0 0.167811 0 0.096378 0 0.0967559 0 0.167811 0 0.0967559 0 0.0967559 0 0.167811 0 0.096378 0 0.0971339 0 0.0706772 0 0.0971339 0 0.096378 0 0.167811 0 0.096378 0 0.0971339 0 0.167811 0 0.096378 0 0.0967559 0 0.167811 0 0.0967559 0 0.167811 0 0.0967559 0 0.096378 0 0.167811 0 0.0971339 0 0.096378 0 0.167811 0 0.0967559 0 0.0967559 0 0.0706772 0 0.0971339 0 0.096378 0 0.167811 0 0.0967559 0 0.0967559 0 0.167811 0 0.0967559 0 0.096378 0 0.167811 0 0.0971339 0 0.167811 0 0.096378 0 0.0967559 0 0.167433 0 0.0971339 0 0.0967559 0 0.167433 0 0.0967559 0 0.0967559 0 0.0710551 0 0.0967559 0 0.0967559 0 0.167811 0 0.096378 0 0.0971339 0 0.167811 0 0.096378 0 0.0967559 0 0.167811 0 0.0967559 0 0.167811 0 0.096378 0 0.0967559 0 0.167811 0 0.0967559 0 0.0967559 0 0.167811 0 0.096378 0 0.0971339 0 0.0706772 0 0.0971339 0 0.096378 0 0.167811 0 0.0967559 0 0.0967559 0 0.167811 0 0.096378 0 0.0967559 0 0.167811 0 0.0967559 0 0.167811 0 0.0967559 0 0.096378 0 0.167811 0 0.0971339 0 0.096378 0 0.167811 0 0.0967559 0 0.0967559 0 0.0710551 0 0.0967559 0 0.0967559 0 0.167433 0 0.0967559 0 0.0967559 0 0.167811 0 0.0967559 0 0.096378 0 0.167811 0 0.0971339 0 0.167811 0 0.096378 0 0.0967559 0 0.167811 0 0.0967559 0 0.0967559 0 0.167433 0 0.0967559 0 0.167811 0 0.0967559 0 0.0967559 0 0.167811 0 0.096378 0 0.0971339 0 0.167811 0 0.096378 0 0.264567 0 0.0967559 0 0.167811 0 0.0967559 0 0.096378 0 0.167811 0 0.0967559 0 0.264567 0 0.096378 0 0.167811 0 0.0971339 0 0.096378 0 0.167811 0 0.0967559 0 0.264567 0 0.0967559 0 0.264189 0 0.0971339 0 0.167433 0 0.0967559 0 0.264189 0 0.0971339 0 0.264189 0 0.0967559 0 0.167811 0 0.0967559 0 0.264567 0 0.096378 0 0.264567 0 0.0967559 0 0.264189 0 0.264945 0 0.096378 0 0.264567 0 0.0967559 0 0.264567 0 0.264189 0 0.0971339 0 0.264189 0 0.096378 0 0.264945 0 0.360945 0 0.264567 0 0.0967559 0 0.264189 0 0.361323 0 0.264189 0 0.0971339 0 0.264189 0 0.361323 0 0.360945 0 0.264945 0 0.360567 0 0.361323 0 0.264567 0 0.361323 0 0.361323 0 0.625512 0 0.360945 0 0.625512 0 0.361323 0 0.986835 0 0.986457 0 0.987591c72.5061,-57.4129 119.514,-18.8383 198.007,-33.3041l0 -19.7359c-27.5512,-37.6721 -55.1025,-75.3441 -82.6534,-113.017 -39.354,11.3121 -75.5259,-22.7471 -115.353,-3.09619l0 0.986457 0 0.986835 0 0.986835 0 0.986835 0 0.986835 0 0.986835 0 0.360945 0 0.625512 0 0.361323 0 0.625512 0 0.361323 0 0.360945 0 0.264945 0 0.360945 0 0.361323 0 0.264189 0 0.361323 0 0.361323 0 0.264189 0 0.0967559 0 0.264567 0 0.360945 0 0.264567 0 0.0967559 0 0.264189 0 0.361323 0 0.264567 0 0.0967559 0 0.264567 0 0.096378 0 0.264567 0 0.264567 0 0.096378 0 0.264945 0 0.096378 0 0.264567 0 0.264567 0 0.0967559 0 0.264189 0 0.0967559 0 0.264567 0 0.096378 0 0.167811 0 0.0971339 0 0.264189 0 0.0967559 0 0.264567 0 0.0967559 0 0.167811 0 0.096378 0 0.264567 0 0.096378 0 0.264567 0 0.0971339 0 0.167811 0 0.096378 0 0.0967559 0 0.167811 0 0.096378 0 0.264945 0 0.096378 0 0.167811 0 0.0967559 0 0.096378 0 0.168189 0 0.096 0 0.265323 0 0.096 0 0.168567z"/>
  <path class="fil2" d="M664.918 323.365l0 149.417c-72.5061,-57.4129 -119.514,-18.8383 -198.007,-33.3037l82.6537 -113.017c39.354,11.3121 75.5259,-22.7475 115.353,-3.09657z"/>
  <g style="clip-path:url(#id0)">
   <g id="_247616488">
    <polygon id="_2476162241" class="fil3" points="486.036,382.766 857.133,382.766 799.093,284.611 505.188,287.282 "/>
   </g>
  </g>
  <path class="fil4 str1" d="M664.918 323.365l0 149.417c-72.5061,-57.4129 -119.514,-18.8383 -198.007,-33.3037l82.6537 -113.017c39.354,11.3121 75.5259,-22.7475 115.353,-3.09657z"/>
  <path class="fil2" d="M678.249 323.365l0 149.417c72.5061,-57.4129 119.514,-18.8383 198.007,-33.3037l-82.6534 -113.017c-39.354,11.3121 -75.5259,-22.7475 -115.353,-3.09657z"/>
  <g style="clip-path:url(#id1)">
   <g id="_247616440">
    <polygon id="_2476161281" class="fil3" points="486.036,382.766 857.133,382.766 799.093,284.611 505.188,287.282 "/>
   </g>
  </g>
  <path class="fil4 str1" d="M678.249 323.365l0 149.417c72.5061,-57.4129 119.514,-18.8383 198.007,-33.3037l-82.6534 -113.017c-39.354,11.3121 -75.5259,-22.7475 -115.353,-3.09657z"/>
  <path class="fil5" d="M689.836 552.026c-183.241,30.4316 -329.068,-8.55609 -336.709,-95.6043 -7.6422,-87.0463 125.512,-192.348 306.492,-248.491 -147.173,50.3123 -253.437,148.385 -245.912,234.091 7.52428,85.708 126.316,130.285 276.13,110.004z"/>
  <path class="fil5" d="M730.188 197.09c183.236,-30.4297 329.059,8.55987 336.701,95.6066 7.64183,87.0482 -125.517,192.35 -306.501,248.493 147.177,-50.3119 253.446,-148.385 245.921,-234.093 -7.52428,-85.7065 -126.312,-130.285 -276.121,-110.006z"/>
  <path class="fil1" d="M706.963 362.065c11.7951,12.042 16.828,32.1819 17.3654,48.5771 0.322016,9.81354 -0.814866,20.0118 -3.92353,29.3507 -2.91742,8.76435 -7.69701,17.0536 -14.9473,22.9334 -8.67931,7.03899 -19.3077,9.26891 -30.2714,8.06702l-2.05077 -0.224126 -0.654614 -1.95666c-5.82728,-17.4225 -6.0034,-33.2485 2.81537,-49.6063 3.2451,-6.01928 7.30129,-11.469 11.3654,-16.9448 3.73115,-5.02715 7.52995,-10.1503 10.3642,-15.7512 3.54406,-7.00195 5.11824,-14.05 4.42469,-21.9065l-0.792945 -8.97638 6.30539 6.43767z"/>
  <path class="fil5" d="M704.661 364.32c3.51534,39.8105 -47.3458,48.9906 -29.1235,103.47 53.1674,5.82614 55.5957,-76.4432 29.1235,-103.47z"/>
  <g style="clip-path:url(#id2)">
   <g id="_247608880">
    <path id="_2476084721" class="fil2" d="M676.597 469.496c17.0668,-15.9024 27.6098,-33.2825 30.954,-62.8101 -8.48693,29.4093 -18.4615,45.6234 -35.1617,59.204 1.40296,1.20189 2.80517,2.40416 4.20775,3.60605z"/>
    <path id="_247608736" class="fil2" d="M690.357 451.915c4.89524,-11.3567 6.30879,-22.0399 1.63918,-37.0855 2.14791,16.0838 0.761953,26.0803 -4.45002,36.2317 0.936945,0.284598 1.87389,0.569197 2.81083,0.853795z"/>
    <path id="_247608592" class="fil2" d="M682.493 458.23c7.02425,-10.1779 15.3271,-17.0479 30.556,-21.0792 -14.77,6.71924 -22.5052,13.2015 -28.34,23.0079 -0.738898,-0.642898 -1.47742,-1.2858 -2.21594,-1.92869z"/>
   </g>
  </g>
  <path class="fil4" d="M704.661 364.32c3.51534,39.8105 -47.3458,48.9906 -29.1235,103.47 53.1674,5.82614 55.5957,-76.4432 29.1235,-103.47z"/>
  <path class="fil1" d="M641.718 364.603c-0.693543,7.8565 0.88063,14.9046 4.42469,21.9065 2.83427,5.60088 6.63307,10.724 10.3638,15.7512 4.0645,5.47578 8.12069,10.9255 11.3658,16.9448 8.81877,16.3578 8.64265,32.1838 2.81537,49.6063l-0.654614 1.95666 -2.05077 0.224126c-10.9637,1.20189 -21.5921,-1.02803 -30.2714,-8.06702 -7.25027,-5.87981 -12.0299,-14.1691 -14.9473,-22.9334 -3.10866,-9.33883 -4.24554,-19.5371 -3.92353,-29.3507 0.537449,-16.3952 5.57027,-36.5352 17.3654,-48.5771l6.30539 -6.43767 -0.792945 8.97638z"/>
  <path class="fil5" d="M638.508 364.32c-3.51534,39.8105 47.3458,48.9906 29.1235,103.47 -53.1674,5.82614 -55.5957,-76.4432 -29.1235,-103.47z"/>
  <g style="clip-path:url(#id3)">
   <g id="_247607824">
    <path id="_2476081361" class="fil2" d="M666.573 469.496c-17.0672,-15.9024 -27.6102,-33.2825 -30.954,-62.8101 8.48655,29.4093 18.4611,45.6234 35.1613,59.204 -1.40258,1.20189 -2.80479,2.40416 -4.20737,3.60605z"/>
    <path id="_247607968" class="fil2" d="M652.812 451.915c-4.89524,-11.3567 -6.30879,-22.0399 -1.63918,-37.0855 -2.14791,16.0838 -0.761953,26.0803 4.45002,36.2317 -0.936945,0.284598 -1.87389,0.569197 -2.81083,0.853795z"/>
    <path id="_247607896" class="fil2" d="M660.676 458.23c-7.02425,-10.1779 -15.3271,-17.0479 -30.5563,-21.0792 14.7704,6.71924 22.5056,13.2015 28.3404,23.0079 0.738898,-0.642898 1.47742,-1.2858 2.21594,-1.92869z"/>
   </g>
  </g>
  <path class="fil4" d="M638.508 364.32c-3.51534,39.8105 47.3458,48.9906 29.1235,103.47 -53.1674,5.82614 -55.5957,-76.4432 -29.1235,-103.47z"/>
  <path class="fil1" d="M561.657 462.413c7.19282,3.32712 14.2874,4.21909 22.1121,3.24926 6.22942,-0.772913 12.3352,-2.6143 18.3284,-4.42431 6.52838,-1.9714 13.0292,-3.94469 19.7915,-4.96139 18.3764,-2.76359 33.2092,2.75679 47.6323,14.1351l1.61953 1.27786 -0.482268 2.00617c-2.58973,10.7664 -8.23483,19.9468 -17.8341,25.756 -16.3801,9.91332 -38.6328,6.79861 -55.5851,0.0676535 -15.2462,-6.05329 -32.4956,-17.6035 -39.837,-32.7776l-3.92391 -8.11124 8.17852 3.78255z"/>
  <path class="fil5" d="M560.304 465.338c36.2729,16.7785 62.1207,-27.9768 107.221,7.60403 -12.5072,52.0029 -90.7457,26.4514 -107.221,-7.60403z"/>
  <g style="clip-path:url(#id4)">
   <g id="_247605904">
    <path id="_2476066481" class="fil2" d="M668.773 474.517c-20.7394,10.6798 -40.6617,14.7201 -69.5788,7.87616 30.5458,1.9646 49.1788,-1.9355 67.6089,-13.0556 0.656504,1.72687 1.31301,3.45298 1.96989,5.17946z"/>
    <path id="_247606192" class="fil2" d="M647.573 481.517c-12.3432,0.763843 -22.8748,-1.52088 -35.4527,-11.006 14.4087,7.46381 24.2842,9.5418 35.6005,8.07194 -0.0495118,0.978142 -0.0986457,1.95591 -0.14778,2.93405z"/>
    <path id="_247605928" class="fil2" d="M656.176 476.253c-11.9543,3.16649 -21.2285,8.65474 -30.175,21.6215 11.3208,-11.6254 20.0379,-16.7108 31.2401,-18.8837 -0.354898,-0.912756 -0.709795,-1.82513 -1.06507,-2.73789z"/>
   </g>
  </g>
  <path class="fil4" d="M560.304 465.338c36.2729,16.7785 62.1207,-27.9768 107.221,7.60403 -12.5072,52.0029 -90.7457,26.4514 -107.221,-7.60403z"/>
  <path class="fil1" d="M785.766 466.742c-7.3406,15.174 -24.59,26.7243 -39.8366,32.778 -16.9523,6.73058 -39.2047,9.84491 -55.5844,-0.0684094 -9.59887,-5.80913 -15.244,-14.9896 -17.8329,-25.756l-0.482646 -2.00617 1.61953 -1.27786c14.4223,-11.3786 29.2547,-16.8986 47.6311,-14.1351 6.76195,1.01707 13.2627,2.98998 19.7911,4.96176 5.99282,1.81002 12.099,3.6514 18.3284,4.42356 7.824,0.970583 14.9189,0.0786142 22.1121,-3.2485l8.17776 -3.78255 -3.92353 8.11124z"/>
  <path class="fil5" d="M782.865 465.338c-36.2729,16.7785 -62.1207,-27.9768 -107.221,7.60403 12.5072,52.0029 90.7457,26.4514 107.221,-7.60403z"/>
  <g style="clip-path:url(#id5)">
   <g id="_247607224">
    <path id="_2476073441" class="fil2" d="M674.396 474.517c20.7394,10.6798 40.6617,14.7201 69.5788,7.87616 -30.5458,1.9646 -49.1788,-1.9355 -67.6089,-13.0556 -0.656504,1.72687 -1.31339,3.45298 -1.96989,5.17946z"/>
    <path id="_247607104" class="fil2" d="M695.597 481.517c12.3432,0.763843 22.8745,-1.52088 35.4527,-11.006 -14.4087,7.46381 -24.2842,9.5418 -35.6005,8.07194 0.0495118,0.978142 0.0986457,1.95591 0.14778,2.93405z"/>
    <path id="_247606696" class="fil2" d="M686.993 476.253c11.9546,3.16649 21.2289,8.65474 30.1754,21.6215 -11.3208,-11.6254 -20.0379,-16.7108 -31.2404,-18.8837 0.355276,-0.912756 0.710173,-1.82513 1.06507,-2.73789z"/>
   </g>
  </g>
  <path class="fil4" d="M782.865 465.338c-36.2729,16.7785 -62.1207,-27.9768 -107.221,7.60403 12.5072,52.0029 90.7457,26.4514 107.221,-7.60403z"/>
  <path class="fil1" d="M762.923 401.938c1.33191,8.13657 0.158362,16.8238 -2.09991,24.692 -2.52926,8.81235 -6.61493,17.373 -11.6349,25.0337 -9.99685,15.2568 -26.4076,30.6032 -45.5093,31.9151 -11.1923,0.768756 -21.0928,-3.49531 -29.4025,-10.8125l-1.54809 -1.36328 0.589606 -1.97707c5.25354,-17.6035 14.2118,-30.6505 30.8341,-38.959 6.11641,-3.05764 12.5688,-5.18211 19.0435,-7.32397 5.94293,-1.96649 11.9977,-3.97228 17.5374,-6.92296 6.95849,-3.70696 12.2498,-8.51679 16.2202,-15.3763l4.51427 -7.79792 1.4555 8.89209z"/>
  <path class="fil5" d="M759.742 402.458c-20.0217,34.5883 -66.9082,12.844 -83.3367,67.8905 40.142,35.3465 89.4471,-30.5556 83.3367,-67.8905z"/>
  <g style="clip-path:url(#id6)">
   <g id="_247607632">
    <path id="_2476078001" class="fil2" d="M676.29 472.355c23.1084,-3.19257 41.7294,-11.3458 61.4483,-33.5769 -23.8579,19.1762 -41.3435,26.7027 -62.8157,28.2066 0.456189,1.79036 0.911622,3.58035 1.36743,5.37033z"/>
    <path id="_247608160" class="fil2" d="M697.66 465.887c10.5366,-6.47433 17.8375,-14.4008 22.6711,-29.3945 -7.49367,14.3928 -14.3773,21.7731 -24.4796,27.0792 0.602835,0.77178 1.20567,1.54356 1.8085,2.31534z"/>
    <path id="_247607656" class="fil2" d="M687.594 466.529c11.6005,-4.28561 22.3438,-5.12995 37.1203,0.331465 -15.9473,-2.99868 -26.0031,-2.14488 -36.4165,2.52094 -0.234709,-0.950929 -0.469039,-1.90148 -0.703748,-2.85241z"/>
   </g>
  </g>
  <path class="fil4" d="M759.742 402.458c-20.0217,34.5883 -66.9082,12.844 -83.3367,67.8905 40.142,35.3465 89.4471,-30.5556 83.3367,-67.8905z"/>
  <path class="fil1" d="M586.216 400.844c3.97039,6.85946 9.26098,11.6693 16.2198,15.3766 5.53965,2.95068 11.5941,4.95647 17.5378,6.92296 6.47433,2.14186 12.9267,4.26671 19.0435,7.32435 16.622,8.30891 25.5806,21.3562 30.8345,38.9594l0.589606 1.97707 -1.54809 1.36328c-8.30967,7.31717 -18.2109,11.5809 -29.4028,10.8121 -19.1025,-1.31225 -35.5132,-16.659 -45.5097,-31.9162 -5.01959,-7.66072 -9.10488,-16.221 -11.6345,-25.0333 -2.25827,-7.8686 -3.43181,-16.5555 -2.09991,-24.692l1.4555 -8.89247 4.51427 7.7983z"/>
  <path class="fil5" d="M583.426 402.458c20.022,34.5883 66.9086,12.844 83.3371,67.8905 -40.142,35.3465 -89.4471,-30.5556 -83.3371,-67.8905z"/>
  <g style="clip-path:url(#id7)">
   <g id="_247606960">
    <path id="_2476072001" class="fil2" d="M666.879 472.355c-23.1084,-3.19257 -41.7294,-11.3458 -61.4483,-33.5769 23.8579,19.1762 41.3431,26.7027 62.8157,28.2066 -0.456189,1.79036 -0.912,3.58035 -1.36743,5.37033z"/>
    <path id="_247607032" class="fil2" d="M645.51 465.887c-10.5366,-6.47433 -17.8375,-14.4008 -22.6715,-29.3945 7.49405,14.3928 14.3777,21.7731 24.48,27.0792 -0.602835,0.77178 -1.20567,1.54356 -1.8085,2.31534z"/>
    <path id="_247607080" class="fil2" d="M655.575 466.529c-11.6005,-4.28561 -22.3442,-5.12995 -37.1206,0.331465 15.9477,-2.99868 26.0035,-2.14488 36.4169,2.52094 0.234709,-0.950929 0.469039,-1.90148 0.703748,-2.85241z"/>
   </g>
  </g>
  <path class="fil4" d="M583.426 402.458c20.022,34.5883 66.9086,12.844 83.3371,67.8905 -40.142,35.3465 -89.4471,-30.5556 -83.3371,-67.8905z"/>
  <path class="fil1" d="M655.297 417.511l-0.772913 0 0 -12.017 0.987591 0 4.71194 -178.414c0.0706772,-2.68913 2.56441,-5.40057 5.46822,-5.40057l11.7838 0c2.90381,0 5.39717,2.71143 5.46784,5.40019l4.71156 178.414 0.987969 0 0 12.017 -0.772535 0 4.38501 29.6731 -18.3564 29.9649 -2.31534 3.77953 -2.31534 -3.77953 -18.3564 -29.9649 4.38501 -29.6731z"/>
  <path class="fil2" d="M675.691 416.362l-8.21367 0 -8.95219 0 -4.46778 30.2306 16.8144 27.4473 0 -32.154c-3.10639,-0.39874 -5.50261,-2.94009 -5.50261,-6.01587 0,-3.35244 2.84636,-6.07106 6.35679,-6.07106 3.51005,0 6.35679,2.71861 6.35679,6.07106 0,3.16876 -2.54324,5.77058 -5.78608,6.04611l0 32.1237 16.8144 -27.4473 -4.46816 -30.2306 -8.95181 0z"/>
  <path class="fil5" d="M663.25 227.152l-4.73348 179.237 0.00793701 -0.0616063 8.95219 0 4.10683 0 4.10646 0 8.95219 0 0.00793701 0.0616063 -4.73348 -179.237c-0.0325039,-1.23288 -1.30583,-2.58142 -2.44157,-2.58142l-11.7834 0c-1.13575,0 -2.40907,1.34854 -2.44157,2.58142z"/>
  <path class="fil2" d="M658.602 414.362l25.9638 0c0.260409,0 0.473197,-0.699591 0.473197,-1.55452l0 -3.12491c0,-0.855307 -0.212787,-1.5549 -0.473197,-1.5549l-25.9638 0c-0.260409,0 -0.473575,0.699591 -0.473575,1.5549l0 3.12491c0,0.854929 0.213165,1.55452 0.473575,1.55452z"/>
  <polygon class="fil5" points="966.675,339.837 970.521,351.749 983.038,351.725 972.897,359.063 976.788,370.961 966.675,363.583 956.563,370.961 960.454,359.063 950.313,351.725 962.83,351.749 "/>
  <polygon class="fil5" points="946.121,380.053 949.966,391.965 962.484,391.941 952.343,399.279 956.234,411.176 946.121,403.799 936.008,411.176 939.899,399.279 929.758,391.941 942.276,391.965 "/>
  <polygon class="fil5" points="977.532,296.412 981.377,308.324 993.894,308.3 983.754,315.638 987.645,327.535 977.532,320.158 967.419,327.535 971.31,315.638 961.169,308.3 973.687,308.324 "/>
  <polygon class="fil5" points="961.567,251.071 965.412,262.983 977.929,262.959 967.788,270.297 971.679,282.195 961.567,274.817 951.454,282.195 955.345,270.297 945.204,262.959 957.722,262.983 "/>
  <polygon class="fil5" points="920.658,222.756 924.503,234.669 937.021,234.645 926.88,241.983 930.771,253.88 920.658,246.503 910.545,253.88 914.436,241.983 904.295,234.645 916.813,234.669 "/>
  <polygon class="fil5" points="877.659,210.726 881.504,222.638 894.022,222.614 883.881,229.952 887.771,241.849 877.659,234.472 867.546,241.849 871.437,229.952 861.296,222.614 873.814,222.638 "/>
  <polygon class="fil5" points="832.868,200.469 836.713,212.381 849.231,212.357 839.09,219.695 842.981,231.592 832.868,224.215 822.755,231.592 826.646,219.695 816.505,212.357 829.023,212.381 "/>
  <polygon class="fil5" points="786.501,196.081 790.346,207.993 802.864,207.97 792.723,215.308 796.614,227.205 786.501,219.828 776.388,227.205 780.279,215.308 770.138,207.97 782.656,207.993 "/>
  <polygon class="fil5" points="914.372,406.716 918.217,418.629 930.734,418.605 920.594,425.943 924.484,437.841 914.372,430.463 904.259,437.841 908.15,425.943 898.009,418.605 910.526,418.629 "/>
 </g>
</svg>
