<?xml version="1.0" encoding="UTF-8"?>
<!DOCTYPE svg PUBLIC "-//W3C//DTD SVG 1.1//EN" "http://www.w3.org/Graphics/SVG/1.1/DTD/svg11.dtd">
<!-- Creator: CorelDRAW -->
<svg xmlns="http://www.w3.org/2000/svg" xml:space="preserve" width="1440px" height="768px" style="shape-rendering:geometricPrecision; text-rendering:geometricPrecision; image-rendering:optimizeQuality; fill-rule:evenodd; clip-rule:evenodd"
viewBox="0 0 1440 768"
 xmlns:xlink="http://www.w3.org/1999/xlink">
 <defs>
  <style type="text/css">
   <![CDATA[
    .str0 {stroke:#B3B3B3;stroke-width:0.288}
    .fil0 {fill:none}
    .fil2 {fill:#212832}
    .fil1 {fill:#C61A6C}
    .fil3 {fill:#CCCCCC}
   ]]>
  </style>
 </defs>
 <g id="Layer_x0020_1">
  <metadata id="CorelCorpID_0Corel-Layer"/>
  <rect class="fil0" x="-45.6147" y="-2.90268" width="1448" height="770"/>
  <path class="fil0" d="M262.343 768.5l-266.843 0 0 -341.267c65.8367,9.37512 133.013,26.6933 157.722,58.6719 47.4342,61.3894 85.6607,241.935 109.121,282.595z"/>
  <path class="fil0" d="M317.47 768.5l-321.97 0 0 -370.242c76.2353,8.97827 159.406,26.9889 188.295,63.1 56.0001,69.9999 100,290 124,300 2.47861,1.03294 5.76907,3.51874 9.67521,7.14217z"/>
  <path class="fil0" d="M262.343 768.5l-266.843 0 0 -341.267c65.8367,9.37512 133.013,26.6933 157.722,58.6719 47.4342,61.3894 85.6607,241.935 109.121,282.595z"/>
  <path class="fil0" d="M1443.5 274.827l0 493.673 -440.62 0c25.4226,-0.900283 35.1352,-8.34293 20.1135,-49.0027 -36,-97.4408 63.9999,-242.566 63.9999,-242.566 67.067,-126.566 212.488,-181.074 356.506,-202.104zm-456.281 493.673l-39.2224 0c14.6668,-0.654614 27.8861,-0.222992 39.2224,0z"/>
  <path class="fil0" d="M1443.5 216.481l0 552.019 -740.43 0c10.9474,-11.0725 23.2736,-21.2855 37.158,-30.2434 124,-80.0001 230,9.99987 194,-84 -36,-93.9999 63.9999,-234 63.9999,-234 80.9873,-147.439 276.226,-193.534 445.272,-203.776z"/>
  <path class="fil0" d="M1443.5 274.827l0 493.673 -440.62 0c25.4226,-0.900283 35.1352,-8.34293 20.1135,-49.0027 -36,-97.4408 63.9999,-242.566 63.9999,-242.566 67.067,-126.566 212.488,-181.074 356.506,-202.104zm-456.281 493.673l-39.2224 0c14.6668,-0.654614 27.8861,-0.222992 39.2224,0z"/>
  <g id="_260207304">
   <rect id="_260201520" class="fil0 str0" transform="matrix(0.749937 -0.256836 0.256836 0.749937 716.195 471.755)" width="270.5" height="246.5"/>
   <rect id="_260207448" class="fil0 str0" transform="matrix(0.613081 -0.209967 0.209967 0.613081 740.481 482.283)" width="270.5" height="246.5"/>
   <rect id="_260202336" class="fil0 str0" transform="matrix(0.461207 -0.157953 0.157953 0.461207 767.433 493.966)" width="270.5" height="246.5"/>
  </g>
  <g id="_260211480">
   <rect id="_260212224" class="fil0 str0" transform="matrix(0.792698 -0.000590071 0.000590071 0.792698 201.748 551.92)" width="270.5" height="246.5"/>
   <rect id="_260210832" class="fil0 str0" transform="matrix(0.648039 -0.000482389 0.000482389 0.648039 221.327 569.735)" width="270.5" height="246.5"/>
   <rect id="_260211288" class="fil0 str0" transform="matrix(0.487505 -0.000362891 0.000362891 0.487505 243.054 589.504)" width="270.5" height="246.5"/>
  </g>
  <path class="fil1" d="M1443.5 216.481c-169.047,10.2418 -364.285,56.3369 -445.272,203.776 0,0 -99.9999,140 -63.9999,234 36,93.9999 -69.9995,3.99987 -194,84 -13.8845,8.95786 -26.2106,19.1709 -37.158,30.2434l740.43 0 0 -552.019z"/>
  <path class="fil2" d="M947.996 768.5c14.6668,-0.654614 27.8861,-0.222992 39.2224,0l-39.2224 0zm54.884 0c25.4226,-0.900283 35.1352,-8.34293 20.1135,-49.0027 -36,-97.4408 63.9999,-242.566 63.9999,-242.566 67.067,-126.566 212.488,-181.074 356.506,-202.104l0 493.673 -440.62 0z"/>
  <path class="fil1" d="M-4.49991 398.258c76.2353,8.97827 159.406,26.9889 188.295,63.1 56.0001,69.9999 100,290 124,300 2.47861,1.03294 5.76907,3.51874 9.67521,7.14217l-321.97 0 0 -370.242z"/>
  <path class="fil2" d="M-4.49991 427.233c65.8367,9.37512 133.013,26.6933 157.722,58.6719 47.4342,61.3894 85.6607,241.935 109.121,282.595l-266.843 0 0 -341.267z"/>
  <g id="_260201184">
   <path id="_260201496" class="fil1" d="M138.954 350.033c-13.985,10.6038 -31.4158,16.8994 -50.3195,16.8994 -18.9041,0 -36.3349,-6.29556 -50.3199,-16.8994l100.639 0z"/>
   <path id="_260208120" class="fil1" d="M167.783 309.799c-4.11666,12.4271 -11.0751,23.5586 -20.109,32.6219l-118.081 0c-9.03383,-9.06331 -15.9923,-20.1948 -20.109,-32.6219l158.299 0z"/>
   <path id="_258073576" class="fil1" d="M170.309 266.779c1.10891,5.42249 1.69096,11.0366 1.69096,16.7868 0,5.41493 -0.522709,10.7074 -1.50879,15.8347l-163.714 0c-0.986079,-5.12731 -1.50879,-10.4198 -1.50879,-15.8347 0,-5.75017 0.582047,-11.3643 1.69096,-16.7868l163.35 0z"/>
   <path id="_260202312" class="fil1" d="M28.5426 225.787l120.183 0c8.77833,9.12794 15.4961,20.2515 19.4079,32.6215l-158.998 0c3.91181,-12.37 10.6295,-23.4935 19.4079,-32.6215z"/>
   <path id="_260209032" class="fil1" d="M138.169 216.511l-99.0701 0c13.8497,-10.2482 30.9834,-16.3109 49.5352,-16.3109 18.5514,0 35.6852,6.06274 49.5349,16.3109z"/>
  </g>
  <g id="_260210976">
   <path id="_260212056" class="fil1" d="M1088.3 135.704c-11.4028,8.64605 -25.615,13.779 -41.0279,13.779 -15.4129,0 -29.6254,-5.13298 -41.0279,-13.779l82.0558 0z"/>
   <path id="_260211672" class="fil1" d="M1111.81 102.9c-3.35622,10.1322 -9.03005,19.2083 -16.3956,26.5977l-96.2767 0c-7.36554,-7.38935 -13.0394,-16.4655 -16.3956,-26.5977l129.068 0z"/>
   <path id="_260211072" class="fil1" d="M1113.87 67.8248c0.904063,4.42129 1.37877,8.99868 1.37877,13.6868 0,4.41524 -0.425953,8.73033 -1.23024,12.9109l-133.483 0c-0.804283,-4.18054 -1.23024,-8.49562 -1.23024,-12.9109 0,-4.68813 0.474709,-9.26551 1.37877,-13.6868l133.186 0z"/>
   <path id="_260211312" class="fil1" d="M998.282 34.402l97.9895 0c7.15767,7.44265 12.6346,16.512 15.8241,26.598l-129.638 0c3.18954,-10.086 8.66646,-19.1554 15.8241,-26.598z"/>
   <path id="_260211000" class="fil1" d="M1087.66 26.8388l-80.7761 0c11.2921,-8.35578 25.262,-13.299 40.388,-13.299 15.126,0 29.0959,4.94324 40.388,13.299z"/>
  </g>
  <g id="_260210520">
   <path id="_260212464" class="fil1" d="M491.424 613.252c-9.65254,7.31906 -21.6839,11.6644 -34.7316,11.6644 -13.0477,0 -25.0791,-4.34532 -34.7316,-11.6644l69.4632 0z"/>
   <path id="_260212944" class="fil1" d="M511.323 585.482c-2.84145,8.57764 -7.64409,16.2607 -13.8796,22.5162l-81.5017 0c-6.23546,-6.2555 -11.0381,-13.9385 -13.8796,-22.5162l109.261 0z"/>
   <path id="_260211696" class="fil1" d="M513.066 555.789c0.765354,3.74287 1.16712,7.61764 1.16712,11.5865 0,3.73757 -0.360567,7.39049 -1.04126,10.9296l-112.999 0c-0.680693,-3.53915 -1.04126,-7.19206 -1.04126,-10.9296 0,-3.96888 0.401764,-7.84365 1.16712,-11.5865l112.747 0z"/>
   <path id="_260210808" class="fil1" d="M415.217 527.496l82.9516 0c6.05934,6.30009 10.6957,13.9778 13.3958,22.5158l-109.743 0c2.70009,-8.53795 7.33644,-16.2157 13.3958,-22.5158z"/>
   <path id="_260202264" class="fil1" d="M490.883 521.093l-68.38 0c9.55918,-7.07339 21.3853,-11.2581 34.19,-11.2581 12.8047,0 24.6308,4.18469 34.19,11.2581z"/>
  </g>
  <g id="_260214960">
   <g>
    <circle id="_260201352" class="fil3" cx="236.214" cy="43.7414" r="11.3252"/>
    <circle id="_260202432" class="fil3" cx="268.571" cy="43.7414" r="11.3252"/>
    <circle id="_260210760" class="fil3" cx="300.928" cy="43.7414" r="11.3252"/>
    <circle id="_260207904" class="fil3" cx="331.668" cy="43.7414" r="11.3252"/>
   </g>
   <g>
    <circle id="_260213160" class="fil3" cx="235.437" cy="75.6654" r="11.3252"/>
    <circle id="_260213256" class="fil3" cx="267.794" cy="75.6654" r="11.3252"/>
    <circle id="_260213472" class="fil3" cx="300.151" cy="75.6654" r="11.3252"/>
    <circle id="_260213328" class="fil3" cx="330.891" cy="75.6654" r="11.3252"/>
   </g>
   <g>
    <circle id="_260211360" class="fil3" cx="235.239" cy="106.809" r="11.3252"/>
    <circle id="_260210136" class="fil3" cx="267.597" cy="106.809" r="11.3252"/>
    <circle id="_260210544" class="fil3" cx="299.954" cy="106.809" r="11.3252"/>
    <circle id="_260209344" class="fil3" cx="330.693" cy="106.809" r="11.3252"/>
   </g>
   <g>
    <circle id="_260214216" class="fil3" cx="236.214" cy="137.577" r="11.3252"/>
    <circle id="_260214624" class="fil3" cx="268.571" cy="137.577" r="11.3252"/>
    <circle id="_260214144" class="fil3" cx="300.928" cy="137.577" r="11.3252"/>
    <circle id="_260214360" class="fil3" cx="331.668" cy="137.577" r="11.3252"/>
   </g>
   <g>
    <circle id="_260214264" class="fil3" cx="236.737" cy="167.695" r="11.3252"/>
    <circle id="_260214024" class="fil3" cx="269.095" cy="167.695" r="11.3252"/>
    <circle id="_260213976" class="fil3" cx="301.452" cy="167.695" r="11.3252"/>
    <circle id="_260214000" class="fil3" cx="332.191" cy="167.695" r="11.3252"/>
   </g>
  </g>
  <g id="_260208528">
   <g>
    <circle id="_260215608" class="fil3" cx="1182.58" cy="43.0599" r="18.6245"/>
    <circle id="_260215464" class="fil3" cx="1235.79" cy="43.0599" r="18.6245"/>
    <circle id="_260216160" class="fil3" cx="1289" cy="43.0599" r="18.6245"/>
    <circle id="_260215776" class="fil3" cx="1339.55" cy="43.0599" r="18.6245"/>
   </g>
   <g>
    <circle id="_260215752" class="fil3" cx="1181.3" cy="95.5597" r="18.6245"/>
    <circle id="_260215968" class="fil3" cx="1234.51" cy="95.5597" r="18.6245"/>
    <circle id="_260215800" class="fil3" cx="1287.72" cy="95.5597" r="18.6245"/>
    <circle id="_260215896" class="fil3" cx="1338.27" cy="95.5597" r="18.6245"/>
   </g>
   <g>
    <circle id="_260215824" class="fil3" cx="1180.97" cy="146.775" r="18.6245"/>
    <circle id="_260214840" class="fil3" cx="1234.19" cy="146.775" r="18.6245"/>
    <circle id="_260215320" class="fil3" cx="1287.4" cy="146.775" r="18.6245"/>
    <circle id="_260215296" class="fil3" cx="1337.95" cy="146.775" r="18.6245"/>
   </g>
   <g>
    <circle id="_260214696" class="fil3" cx="1182.58" cy="197.376" r="18.6245"/>
    <circle id="_260215080" class="fil3" cx="1235.79" cy="197.376" r="18.6245"/>
    <circle id="_260215008" class="fil3" cx="1289" cy="197.376" r="18.6245"/>
    <circle id="_260214984" class="fil3" cx="1339.55" cy="197.376" r="18.6245"/>
   </g>
   <g>
    <circle id="_260214912" class="fil3" cx="1183.44" cy="246.905" r="18.6245"/>
    <circle id="_260214552" class="fil3" cx="1236.65" cy="246.905" r="18.6245"/>
    <circle id="_260213208" class="fil3" cx="1289.86" cy="246.905" r="18.6245"/>
    <circle id="_260213832" class="fil3" cx="1340.41" cy="246.905" r="18.6245"/>
   </g>
  </g>
  <g id="_86646104">
   <polygon id="_85589024" class="fil0 str0" points="1336.21,425.1 1443.5,425.02 1443.5,620.42 1336.36,620.5 "/>
   <polygon id="_86660264" class="fil0 str0" points="1355.79,442.915 1443.5,442.85 1443.5,602.591 1355.91,602.656 "/>
   <polygon id="_86659880" class="fil0 str0" points="1377.52,462.684 1443.5,462.635 1443.5,582.805 1377.61,582.855 "/>
  </g>
  <g id="_261353664">
   <g>
    <circle id="_85588760" class="fil3" cx="198.171" cy="461.204" r="11.3252"/>
    <circle id="_261351960" class="fil3" cx="230.528" cy="461.204" r="11.3252"/>
    <circle id="_261352824" class="fil3" cx="262.885" cy="461.204" r="11.3252"/>
    <circle id="_261352224" class="fil3" cx="293.625" cy="461.204" r="11.3252"/>
   </g>
   <g>
    <circle id="_261352560" class="fil3" cx="197.393" cy="493.128" r="11.3252"/>
    <circle id="_259519080" class="fil3" cx="229.751" cy="493.128" r="11.3252"/>
    <circle id="_260750312" class="fil3" cx="262.108" cy="493.128" r="11.3252"/>
    <circle id="_260597816" class="fil3" cx="292.847" cy="493.128" r="11.3252"/>
   </g>
   <g>
    <circle id="_260213664" class="fil3" cx="197.196" cy="524.271" r="11.3252"/>
    <circle id="_261345432" class="fil3" cx="229.553" cy="524.271" r="11.3252"/>
    <circle id="_260213232" class="fil3" cx="261.91" cy="524.271" r="11.3252"/>
    <circle id="_260211096" class="fil3" cx="292.65" cy="524.271" r="11.3252"/>
   </g>
   <g>
    <circle id="_262415192" class="fil3" cx="198.171" cy="555.04" r="11.3252"/>
    <circle id="_260201136" class="fil3" cx="230.528" cy="555.04" r="11.3252"/>
    <circle id="_261164440" class="fil3" cx="262.885" cy="555.04" r="11.3252"/>
    <circle id="_86660288" class="fil3" cx="293.625" cy="555.04" r="11.3252"/>
   </g>
   <g>
    <circle id="_262848792" class="fil3" cx="198.694" cy="585.158" r="11.3252"/>
    <circle id="_260207736" class="fil3" cx="231.052" cy="585.158" r="11.3252"/>
    <circle id="_261353520" class="fil3" cx="263.408" cy="585.158" r="11.3252"/>
    <circle id="_261345744" class="fil3" cx="294.148" cy="585.158" r="11.3252"/>
   </g>
  </g>
 </g>
</svg>
